<svg xmlns="http://www.w3.org/2000/svg" xmlns:xlink="http://www.w3.org/1999/xlink" xmlns:serif="http://www.serif.com/" viewBox="0 0 32 40" version="1.1" xml:space="preserve" style="fill:#FFFFFF" x="0px" y="0px" fill-rule="evenodd" clip-rule="evenodd" stroke-linejoin="round" stroke-miterlimit="2"><g transform="matrix(0.264583,0,0,0.264583,0,0)"><path d="M60.458,3.765C29.192,3.765 3.765,29.192 3.765,60.458C3.765,91.724 29.192,117.151 60.458,117.151C91.724,117.151 117.151,91.724 117.151,60.458C117.151,29.192 91.724,3.765 60.458,3.765ZM60.458,11.324C87.64,11.324 109.621,33.276 109.621,60.458C109.621,87.64 87.64,109.621 60.458,109.621C33.276,109.621 11.324,87.64 11.324,60.458C11.324,33.276 33.276,11.324 60.458,11.324ZM60.17,26.464C56.623,26.514 53.222,27.567 50.33,29.409C46.473,31.866 43.473,35.737 42.21,40.453C42.124,40.772 42.081,41.101 42.081,41.431C42.081,43.508 43.79,45.217 45.867,45.217C47.576,45.217 49.084,44.06 49.525,42.409C50.29,39.553 52.055,37.273 54.375,35.795C56.695,34.317 59.532,33.665 62.443,34.178C65.355,34.692 67.796,36.262 69.471,38.445C71.146,40.628 72.017,43.398 71.759,46.344C71.502,49.289 70.163,51.852 68.135,53.711C67.121,54.64 65.936,55.398 64.643,55.91C63.997,56.166 63.332,56.367 62.635,56.501C61.939,56.635 61.197,56.693 60.458,56.693C58.395,56.701 56.701,58.395 56.693,60.458L56.693,75.583C56.692,75.611 56.692,75.639 56.692,75.667C56.692,77.741 58.399,79.448 60.472,79.448C62.546,79.448 64.253,77.741 64.253,75.667C64.253,75.639 64.253,75.611 64.252,75.583L64.252,63.861C65.345,63.638 66.416,63.319 67.434,62.916C69.593,62.06 71.55,60.829 73.236,59.284C76.607,56.195 78.863,51.879 79.289,47.015C79.714,42.152 78.256,37.474 75.472,33.846C72.689,30.218 68.558,27.607 63.75,26.759C62.548,26.547 61.352,26.447 60.17,26.464ZM60.472,86.929C58.399,86.929 56.693,88.635 56.693,90.709C56.693,92.782 58.399,94.488 60.472,94.488C62.546,94.488 64.252,92.782 64.252,90.709C64.252,88.635 62.546,86.929 60.472,86.929Z"/></g></svg>