<svg width="636" height="206" viewBox="0 0 636 206" fill="none" xmlns="http://www.w3.org/2000/svg">
<path d="M7.0625 149.5H0V156.562H7.0625V149.5Z" fill="#995B28"/>
<path d="M7.0625 163.625H0V170.688H7.0625V163.625Z" fill="#492821"/>
<path d="M7.0625 135.375H0V142.438H7.0625V135.375Z" fill="#995B28"/>
<path d="M7.0625 156.562H0V163.625H7.0625V156.562Z" fill="#995B28"/>
<path d="M7.0625 142.438H0V149.5H7.0625V142.438Z" fill="#995B28"/>
<path d="M63.5625 93H56.5V100.062H63.5625V93Z" fill="#694219"/>
<path d="M63.5625 149.5H56.5V156.562H63.5625V149.5Z" fill="#221414"/>
<path d="M63.5625 177.75H56.5V184.812H63.5625V177.75Z" fill="#EFB385"/>
<path d="M63.5625 163.625H56.5V170.688H63.5625V163.625Z" fill="#EFB385"/>
<path d="M63.5625 191.875H56.5V198.938H63.5625V191.875Z" fill="#EFB385"/>
<path d="M63.5625 100.062H56.5V107.125H63.5625V100.062Z" fill="#694219"/>
<path d="M63.5625 156.562H56.5V163.625H63.5625V156.562Z" fill="#EFB385"/>
<path d="M63.5625 184.812H56.5V191.875H63.5625V184.812Z" fill="#EFB385"/>
<path d="M63.5625 170.688H56.5V177.75H63.5625V170.688Z" fill="#EFB385"/>
<path d="M14.125 149.5H7.0625V156.562H14.125V149.5Z" fill="#694219"/>
<path d="M14.125 121.25H7.0625V128.312H14.125V121.25Z" fill="#995B28"/>
<path d="M14.125 177.75H7.0625V184.812H14.125V177.75Z" fill="#221414"/>
<path d="M14.125 163.625H7.0625V170.688H14.125V163.625Z" fill="#995B28"/>
<path d="M14.125 135.375H7.0625V142.438H14.125V135.375Z" fill="#995B28"/>
<path d="M14.125 156.562H7.0625V163.625H14.125V156.562Z" fill="#995B28"/>
<path d="M14.125 128.312H7.0625V135.375H14.125V128.312Z" fill="#995B28"/>
<path d="M14.125 114.188H7.0625V121.25H14.125V114.188Z" fill="#995B28"/>
<path d="M14.125 170.688H7.0625V177.75H14.125V170.688Z" fill="#221414"/>
<path d="M14.125 142.438H7.0625V149.5H14.125V142.438Z" fill="#694219"/>
<path d="M70.625 93H63.5625V100.062H70.625V93Z" fill="#694219"/>
<path d="M70.625 149.5H63.5625V156.562H70.625V149.5Z" fill="#EFB385"/>
<path d="M70.625 177.75H63.5625V184.812H70.625V177.75Z" fill="#EFB385"/>
<path d="M70.625 163.625H63.5625V170.688H70.625V163.625Z" fill="#EFB385"/>
<path d="M70.625 191.875H63.5625V198.938H70.625V191.875Z" fill="#EFB385"/>
<path d="M70.625 100.062H63.5625V107.125H70.625V100.062Z" fill="#694219"/>
<path d="M70.625 156.562H63.5625V163.625H70.625V156.562Z" fill="#EFB385"/>
<path d="M70.625 184.812H63.5625V191.875H70.625V184.812Z" fill="#EFB385"/>
<path d="M70.625 170.688H63.5625V177.75H70.625V170.688Z" fill="#EFB385"/>
<path d="M70.625 198.938H63.5625V206H70.625V198.938Z" fill="#333333"/>
<path d="M49.4375 93H42.375V100.062H49.4375V93Z" fill="#694219"/>
<path d="M49.4375 149.5H42.375V156.562H49.4375V149.5Z" fill="#EFB385"/>
<path d="M49.4375 177.75H42.375V184.812H49.4375V177.75Z" fill="#EFB385"/>
<path d="M49.4375 163.625H42.375V170.688H49.4375V163.625Z" fill="#EFB385"/>
<path d="M49.4375 191.875H42.375V198.938H49.4375V191.875Z" fill="#EFB385"/>
<path d="M49.4375 100.062H42.375V107.125H49.4375V100.062Z" fill="#694219"/>
<path d="M49.4375 156.562H42.375V163.625H49.4375V156.562Z" fill="#EFB385"/>
<path d="M49.4375 184.812H42.375V191.875H49.4375V184.812Z" fill="#EFB385"/>
<path d="M49.4375 170.688H42.375V177.75H49.4375V170.688Z" fill="#EFB385"/>
<path d="M49.4375 198.938H42.375V206H49.4375V198.938Z" fill="#333333"/>
<path d="M105.938 149.5H98.875V156.562H105.938V149.5Z" fill="#694219"/>
<path d="M105.938 121.25H98.875V128.312H105.938V121.25Z" fill="#995B28"/>
<path d="M105.938 177.75H98.875V184.812H105.938V177.75Z" fill="#221414"/>
<path d="M105.938 163.625H98.875V170.688H105.938V163.625Z" fill="#995B28"/>
<path d="M105.938 135.375H98.875V142.438H105.938V135.375Z" fill="#995B28"/>
<path d="M105.938 156.562H98.875V163.625H105.938V156.562Z" fill="#995B28"/>
<path d="M105.938 128.312H98.875V135.375H105.938V128.312Z" fill="#995B28"/>
<path d="M105.938 114.188H98.875V121.25H105.938V114.188Z" fill="#995B28"/>
<path d="M105.938 170.688H98.875V177.75H105.938V170.688Z" fill="#221414"/>
<path d="M105.938 142.438H98.875V149.5H105.938V142.438Z" fill="#694219"/>
<path d="M21.1875 149.5H14.125V156.562H21.1875V149.5Z" fill="#995B28"/>
<path d="M21.1875 121.25H14.125V128.312H21.1875V121.25Z" fill="#694219"/>
<path d="M21.1875 177.75H14.125V184.812H21.1875V177.75Z" fill="black"/>
<path d="M21.1875 107.125H14.125V114.188H21.1875V107.125Z" fill="#995B28"/>
<path d="M21.1875 163.625H14.125V170.688H21.1875V163.625Z" fill="#492821"/>
<path d="M21.1875 135.375H14.125V142.438H21.1875V135.375Z" fill="#694219"/>
<path d="M21.1875 156.562H14.125V163.625H21.1875V156.562Z" fill="#995B28"/>
<path d="M21.1875 128.312H14.125V135.375H21.1875V128.312Z" fill="#694219"/>
<path d="M21.1875 184.812H14.125V191.875H21.1875V184.812Z" fill="black"/>
<path d="M21.1875 114.188H14.125V121.25H21.1875V114.188Z" fill="#995B28"/>
<path d="M21.1875 170.688H14.125V177.75H21.1875V170.688Z" fill="black"/>
<path d="M21.1875 142.438H14.125V149.5H21.1875V142.438Z" fill="#694219"/>
<path d="M77.6875 93H70.625V100.062H77.6875V93Z" fill="#221414"/>
<path d="M77.6875 149.5H70.625V156.562H77.6875V149.5Z" fill="#EFB385"/>
<path d="M77.6875 177.75H70.625V184.812H77.6875V177.75Z" fill="#EFB385"/>
<path d="M77.6875 163.625H70.625V170.688H77.6875V163.625Z" fill="#EFB385"/>
<path d="M77.6875 191.875H70.625V198.938H77.6875V191.875Z" fill="#EFB385"/>
<path d="M77.6875 100.062H70.625V107.125H77.6875V100.062Z" fill="#221414"/>
<path d="M77.6875 156.562H70.625V163.625H77.6875V156.562Z" fill="#EFB385"/>
<path d="M77.6875 184.812H70.625V191.875H77.6875V184.812Z" fill="#EFB385"/>
<path d="M77.6875 170.688H70.625V177.75H77.6875V170.688Z" fill="#EFB385"/>
<path d="M77.6875 198.938H70.625V206H77.6875V198.938Z" fill="#333333"/>
<path d="M35.3125 93H28.25V100.062H35.3125V93Z" fill="#694219"/>
<path d="M35.3125 149.5H28.25V156.562H35.3125V149.5Z" fill="#694219"/>
<path d="M35.3125 177.75H28.25V184.812H35.3125V177.75Z" fill="#EFB385"/>
<path d="M35.3125 163.625H28.25V170.688H35.3125V163.625Z" fill="#EFB385"/>
<path d="M35.3125 191.875H28.25V198.938H35.3125V191.875Z" fill="#EFB385"/>
<path d="M35.3125 100.062H28.25V107.125H35.3125V100.062Z" fill="#694219"/>
<path d="M35.3125 156.562H28.25V163.625H35.3125V156.562Z" fill="#EFB385"/>
<path d="M35.3125 184.812H28.25V191.875H35.3125V184.812Z" fill="#EFB385"/>
<path d="M35.3125 170.688H28.25V177.75H35.3125V170.688Z" fill="#EFB385"/>
<path d="M35.3125 198.938H28.25V206H35.3125V198.938Z" fill="#333333"/>
<path d="M91.8125 149.5H84.75V156.562H91.8125V149.5Z" fill="#995B28"/>
<path d="M91.8125 121.25H84.75V128.312H91.8125V121.25Z" fill="#694219"/>
<path d="M91.8125 177.75H84.75V184.812H91.8125V177.75Z" fill="#492821"/>
<path d="M91.8125 107.125H84.75V114.188H91.8125V107.125Z" fill="#221414"/>
<path d="M91.8125 163.625H84.75V170.688H91.8125V163.625Z" fill="#492821"/>
<path d="M91.8125 135.375H84.75V142.438H91.8125V135.375Z" fill="#995B28"/>
<path d="M91.8125 100.062H84.75V107.125H91.8125V100.062Z" fill="#221414"/>
<path d="M91.8125 156.562H84.75V163.625H91.8125V156.562Z" fill="#995B28"/>
<path d="M91.8125 128.312H84.75V135.375H91.8125V128.312Z" fill="#995B28"/>
<path d="M91.8125 184.812H84.75V191.875H91.8125V184.812Z" fill="#EFB385"/>
<path d="M91.8125 114.188H84.75V121.25H91.8125V114.188Z" fill="#221414"/>
<path d="M91.8125 170.688H84.75V177.75H91.8125V170.688Z" fill="black"/>
<path d="M91.8125 142.438H84.75V149.5H91.8125V142.438Z" fill="#995B28"/>
<path d="M56.5 93H49.4375V100.062H56.5V93Z" fill="#694219"/>
<path d="M56.5 149.5H49.4375V156.562H56.5V149.5Z" fill="#221414"/>
<path d="M56.5 177.75H49.4375V184.812H56.5V177.75Z" fill="#EFB385"/>
<path d="M56.5 163.625H49.4375V170.688H56.5V163.625Z" fill="#EFB385"/>
<path d="M56.5 191.875H49.4375V198.938H56.5V191.875Z" fill="#EFB385"/>
<path d="M56.5 100.062H49.4375V107.125H56.5V100.062Z" fill="#694219"/>
<path d="M56.5 156.562H49.4375V163.625H56.5V156.562Z" fill="#EFB385"/>
<path d="M56.5 184.812H49.4375V191.875H56.5V184.812Z" fill="#EFB385"/>
<path d="M56.5 170.688H49.4375V177.75H56.5V170.688Z" fill="#EFB385"/>
<path d="M113 149.5H105.938V156.562H113V149.5Z" fill="#995B28"/>
<path d="M113 163.625H105.938V170.688H113V163.625Z" fill="#492821"/>
<path d="M113 135.375H105.938V142.438H113V135.375Z" fill="#995B28"/>
<path d="M113 156.562H105.938V163.625H113V156.562Z" fill="#995B28"/>
<path d="M113 142.438H105.938V149.5H113V142.438Z" fill="#995B28"/>
<path d="M28.25 149.5H21.1875V156.562H28.25V149.5Z" fill="#995B28"/>
<path d="M28.25 121.25H21.1875V128.312H28.25V121.25Z" fill="#694219"/>
<path d="M28.25 177.75H21.1875V184.812H28.25V177.75Z" fill="#492821"/>
<path d="M28.25 107.125H21.1875V114.188H28.25V107.125Z" fill="#221414"/>
<path d="M28.25 163.625H21.1875V170.688H28.25V163.625Z" fill="#492821"/>
<path d="M28.25 135.375H21.1875V142.438H28.25V135.375Z" fill="#995B28"/>
<path d="M28.25 100.062H21.1875V107.125H28.25V100.062Z" fill="#221414"/>
<path d="M28.25 156.562H21.1875V163.625H28.25V156.562Z" fill="#995B28"/>
<path d="M28.25 128.312H21.1875V135.375H28.25V128.312Z" fill="#995B28"/>
<path d="M28.25 184.812H21.1875V191.875H28.25V184.812Z" fill="#EFB385"/>
<path d="M28.25 114.188H21.1875V121.25H28.25V114.188Z" fill="#221414"/>
<path d="M28.25 170.688H21.1875V177.75H28.25V170.688Z" fill="black"/>
<path d="M28.25 142.438H21.1875V149.5H28.25V142.438Z" fill="#995B28"/>
<path d="M84.75 93H77.6875V100.062H84.75V93Z" fill="#694219"/>
<path d="M84.75 149.5H77.6875V156.562H84.75V149.5Z" fill="#694219"/>
<path d="M84.75 177.75H77.6875V184.812H84.75V177.75Z" fill="#EFB385"/>
<path d="M84.75 163.625H77.6875V170.688H84.75V163.625Z" fill="#EFB385"/>
<path d="M84.75 191.875H77.6875V198.938H84.75V191.875Z" fill="#EFB385"/>
<path d="M84.75 100.062H77.6875V107.125H84.75V100.062Z" fill="#694219"/>
<path d="M84.75 156.562H77.6875V163.625H84.75V156.562Z" fill="#EFB385"/>
<path d="M84.75 184.812H77.6875V191.875H84.75V184.812Z" fill="#EFB385"/>
<path d="M84.75 170.688H77.6875V177.75H84.75V170.688Z" fill="#EFB385"/>
<path d="M84.75 198.938H77.6875V206H84.75V198.938Z" fill="#333333"/>
<path d="M42.375 93H35.3125V100.062H42.375V93Z" fill="#221414"/>
<path d="M42.375 149.5H35.3125V156.562H42.375V149.5Z" fill="#EFB385"/>
<path d="M42.375 177.75H35.3125V184.812H42.375V177.75Z" fill="#EFB385"/>
<path d="M42.375 163.625H35.3125V170.688H42.375V163.625Z" fill="#EFB385"/>
<path d="M42.375 191.875H35.3125V198.938H42.375V191.875Z" fill="#EFB385"/>
<path d="M42.375 100.062H35.3125V107.125H42.375V100.062Z" fill="#221414"/>
<path d="M42.375 156.562H35.3125V163.625H42.375V156.562Z" fill="#EFB385"/>
<path d="M42.375 184.812H35.3125V191.875H42.375V184.812Z" fill="#EFB385"/>
<path d="M42.375 170.688H35.3125V177.75H42.375V170.688Z" fill="#EFB385"/>
<path d="M63.5625 121.25H56.5V128.312H63.5625V121.25Z" fill="#EFB385"/>
<path d="M63.5625 107.125H56.5V114.188H63.5625V107.125Z" fill="#694219"/>
<path d="M63.5625 135.375H56.5V142.438H63.5625V135.375Z" fill="#EFB385"/>
<path d="M63.5625 128.312H56.5V135.375H63.5625V128.312Z" fill="#EFB385"/>
<path d="M63.5625 114.188H56.5V121.25H63.5625V114.188Z" fill="#694219"/>
<path d="M63.5625 142.438H56.5V149.5H63.5625V142.438Z" fill="#EFB385"/>
<path d="M70.625 121.25H63.5625V128.312H70.625V121.25Z" fill="#EFB385"/>
<path d="M70.625 107.125H63.5625V114.188H70.625V107.125Z" fill="#221414"/>
<path d="M70.625 135.375H63.5625V142.438H70.625V135.375Z" fill="black"/>
<path d="M70.625 128.312H63.5625V135.375H70.625V128.312Z" fill="#EFB385"/>
<path d="M70.625 114.188H63.5625V121.25H70.625V114.188Z" fill="#221414"/>
<path d="M70.625 142.438H63.5625V149.5H70.625V142.438Z" fill="#EFB385"/>
<path d="M49.4375 121.25H42.375V128.312H49.4375V121.25Z" fill="#EFB385"/>
<path d="M49.4375 107.125H42.375V114.188H49.4375V107.125Z" fill="#221414"/>
<path d="M49.4375 135.375H42.375V142.438H49.4375V135.375Z" fill="black"/>
<path d="M49.4375 128.312H42.375V135.375H49.4375V128.312Z" fill="#EFB385"/>
<path d="M49.4375 114.188H42.375V121.25H49.4375V114.188Z" fill="#221414"/>
<path d="M49.4375 142.438H42.375V149.5H49.4375V142.438Z" fill="#EFB385"/>
<path d="M77.6875 121.25H70.625V128.312H77.6875V121.25Z" fill="#694219"/>
<path d="M77.6875 107.125H70.625V114.188H77.6875V107.125Z" fill="#694219"/>
<path d="M77.6875 135.375H70.625V142.438H77.6875V135.375Z" fill="#EFB385"/>
<path d="M77.6875 128.312H70.625V135.375H77.6875V128.312Z" fill="#EFB385"/>
<path d="M77.6875 114.188H70.625V121.25H77.6875V114.188Z" fill="#694219"/>
<path d="M77.6875 142.438H70.625V149.5H77.6875V142.438Z" fill="#EFB385"/>
<path d="M35.3125 121.25H28.25V128.312H35.3125V121.25Z" fill="#221414"/>
<path d="M35.3125 107.125H28.25V114.188H35.3125V107.125Z" fill="#694219"/>
<path d="M35.3125 135.375H28.25V142.438H35.3125V135.375Z" fill="#694219"/>
<path d="M35.3125 128.312H28.25V135.375H35.3125V128.312Z" fill="#694219"/>
<path d="M35.3125 114.188H28.25V121.25H35.3125V114.188Z" fill="#221414"/>
<path d="M35.3125 142.438H28.25V149.5H35.3125V142.438Z" fill="#995B28"/>
<path d="M56.5 121.25H49.4375V128.312H56.5V121.25Z" fill="#EFB385"/>
<path d="M56.5 107.125H49.4375V114.188H56.5V107.125Z" fill="#694219"/>
<path d="M56.5 135.375H49.4375V142.438H56.5V135.375Z" fill="#EFB385"/>
<path d="M56.5 128.312H49.4375V135.375H56.5V128.312Z" fill="#EFB385"/>
<path d="M56.5 114.188H49.4375V121.25H56.5V114.188Z" fill="#694219"/>
<path d="M56.5 142.438H49.4375V149.5H56.5V142.438Z" fill="#EFB385"/>
<path d="M84.75 121.25H77.6875V128.312H84.75V121.25Z" fill="#221414"/>
<path d="M84.75 107.125H77.6875V114.188H84.75V107.125Z" fill="#694219"/>
<path d="M84.75 135.375H77.6875V142.438H84.75V135.375Z" fill="#694219"/>
<path d="M84.75 128.312H77.6875V135.375H84.75V128.312Z" fill="#694219"/>
<path d="M84.75 114.188H77.6875V121.25H84.75V114.188Z" fill="#221414"/>
<path d="M84.75 142.438H77.6875V149.5H84.75V142.438Z" fill="#995B28"/>
<path d="M42.375 121.25H35.3125V128.312H42.375V121.25Z" fill="#694219"/>
<path d="M42.375 107.125H35.3125V114.188H42.375V107.125Z" fill="#694219"/>
<path d="M42.375 135.375H35.3125V142.438H42.375V135.375Z" fill="#EFB385"/>
<path d="M42.375 128.312H35.3125V135.375H42.375V128.312Z" fill="#EFB385"/>
<path d="M42.375 114.188H35.3125V121.25H42.375V114.188Z" fill="#694219"/>
<path d="M42.375 142.438H35.3125V149.5H42.375V142.438Z" fill="#EFB385"/>
<path d="M63.5625 170.688H56.5V177.75H63.5625V170.688Z" fill="#995B28"/>
<path d="M63.5625 156.562H56.5V163.625H63.5625V156.562Z" fill="#EFB385"/>
<path d="M63.5625 184.812H56.5V191.875H63.5625V184.812Z" fill="#694219"/>
<path d="M63.5625 177.75H56.5V184.812H63.5625V177.75Z" fill="#694219"/>
<path d="M63.5625 163.625H56.5V170.688H63.5625V163.625Z" fill="#995B28"/>
<path d="M70.625 170.688H63.5625V177.75H70.625V170.688Z" fill="#995B28"/>
<path d="M70.625 156.562H63.5625V163.625H70.625V156.562Z" fill="#EFB385"/>
<path d="M70.625 184.812H63.5625V191.875H70.625V184.812Z" fill="black"/>
<path d="M70.625 177.75H63.5625V184.812H70.625V177.75Z" fill="#694219"/>
<path d="M70.625 163.625H63.5625V170.688H70.625V163.625Z" fill="#694219"/>
<path d="M70.625 191.875H63.5625V198.938H70.625V191.875Z" fill="black"/>
<path d="M49.4375 170.688H42.375V177.75H49.4375V170.688Z" fill="#995B28"/>
<path d="M49.4375 156.562H42.375V163.625H49.4375V156.562Z" fill="#EFB385"/>
<path d="M49.4375 184.812H42.375V191.875H49.4375V184.812Z" fill="black"/>
<path d="M49.4375 177.75H42.375V184.812H49.4375V177.75Z" fill="#694219"/>
<path d="M49.4375 163.625H42.375V170.688H49.4375V163.625Z" fill="#694219"/>
<path d="M49.4375 191.875H42.375V198.938H49.4375V191.875Z" fill="black"/>
<path d="M77.6875 170.688H70.625V177.75H77.6875V170.688Z" fill="#694219"/>
<path d="M77.6875 156.562H70.625V163.625H77.6875V156.562Z" fill="#995B28"/>
<path d="M77.6875 184.812H70.625V191.875H77.6875V184.812Z" fill="black"/>
<path d="M77.6875 177.75H70.625V184.812H77.6875V177.75Z" fill="#492821"/>
<path d="M77.6875 163.625H70.625V170.688H77.6875V163.625Z" fill="#995B28"/>
<path d="M77.6875 191.875H70.625V198.938H77.6875V191.875Z" fill="black"/>
<path d="M35.3125 170.688H28.25V177.75H35.3125V170.688Z" fill="black"/>
<path d="M35.3125 156.562H28.25V163.625H35.3125V156.562Z" fill="#694219"/>
<path d="M35.3125 184.812H28.25V191.875H35.3125V184.812Z" fill="black"/>
<path d="M35.3125 177.75H28.25V184.812H35.3125V177.75Z" fill="#492821"/>
<path d="M35.3125 163.625H28.25V170.688H35.3125V163.625Z" fill="#694219"/>
<path d="M35.3125 191.875H28.25V198.938H35.3125V191.875Z" fill="black"/>
<path d="M56.5 170.688H49.4375V177.75H56.5V170.688Z" fill="#995B28"/>
<path d="M56.5 156.562H49.4375V163.625H56.5V156.562Z" fill="#EFB385"/>
<path d="M56.5 184.812H49.4375V191.875H56.5V184.812Z" fill="#694219"/>
<path d="M56.5 177.75H49.4375V184.812H56.5V177.75Z" fill="#694219"/>
<path d="M56.5 163.625H49.4375V170.688H56.5V163.625Z" fill="#995B28"/>
<path d="M84.75 170.688H77.6875V177.75H84.75V170.688Z" fill="black"/>
<path d="M84.75 156.562H77.6875V163.625H84.75V156.562Z" fill="#694219"/>
<path d="M84.75 184.812H77.6875V191.875H84.75V184.812Z" fill="black"/>
<path d="M84.75 177.75H77.6875V184.812H84.75V177.75Z" fill="#492821"/>
<path d="M84.75 163.625H77.6875V170.688H84.75V163.625Z" fill="#694219"/>
<path d="M84.75 191.875H77.6875V198.938H84.75V191.875Z" fill="black"/>
<path d="M42.375 170.688H35.3125V177.75H42.375V170.688Z" fill="#694219"/>
<path d="M42.375 156.562H35.3125V163.625H42.375V156.562Z" fill="#995B28"/>
<path d="M42.375 184.812H35.3125V191.875H42.375V184.812Z" fill="black"/>
<path d="M42.375 177.75H35.3125V184.812H42.375V177.75Z" fill="#492821"/>
<path d="M42.375 163.625H35.3125V170.688H42.375V163.625Z" fill="#995B28"/>
<path d="M42.375 191.875H35.3125V198.938H42.375V191.875Z" fill="black"/>
<path d="M42.375 198.938H35.3125V206H42.375V198.938Z" fill="#333333"/>
<path d="M98.875 149.5H91.8125V156.562H98.875V149.5Z" fill="#995B28"/>
<path d="M98.875 121.25H91.8125V128.312H98.875V121.25Z" fill="#694219"/>
<path d="M98.875 177.75H91.8125V184.812H98.875V177.75Z" fill="black"/>
<path d="M98.875 107.125H91.8125V114.188H98.875V107.125Z" fill="#995B28"/>
<path d="M98.875 163.625H91.8125V170.688H98.875V163.625Z" fill="#492821"/>
<path d="M98.875 135.375H91.8125V142.438H98.875V135.375Z" fill="#694219"/>
<path d="M98.875 156.562H91.8125V163.625H98.875V156.562Z" fill="#995B28"/>
<path d="M98.875 128.312H91.8125V135.375H98.875V128.312Z" fill="#694219"/>
<path d="M98.875 184.812H91.8125V191.875H98.875V184.812Z" fill="black"/>
<path d="M98.875 114.188H91.8125V121.25H98.875V114.188Z" fill="#995B28"/>
<path d="M98.875 170.688H91.8125V177.75H98.875V170.688Z" fill="black"/>
<path d="M98.875 142.438H91.8125V149.5H98.875V142.438Z" fill="#694219"/>
<rect x="131" y="3" width="502" height="100" rx="22" fill="#ECEAF7"/>
<path d="M166 65V61H162V57H158V45H162V41H166V37H182V41H186V45H178V41H170V45H166V57H170V61H178V57H186V61H182V65H166ZM194 65V61H190V49H194V45H214V49H218V61H214V65H194ZM198 61H210V49H198V61ZM222 65V45H246V49H250V65H242V49H238V65H230V49H226V65H222ZM266 41V37H274V41H266ZM258 65V61H266V49H262V45H274V61H282V65H258ZM286 65V45H310V49H314V65H306V49H294V65H286ZM322 69V65H338V61H322V57H318V49H322V45H346V65H342V69H322ZM326 57H338V49H326V57ZM386 65V61H382V57H390V61H402V53H386V49H382V41H386V37H406V41H410V45H402V41H390V49H406V53H410V61H406V65H386ZM418 65V61H414V49H418V45H438V49H442V61H438V65H418ZM422 61H434V49H422V61ZM450 65V61H446V49H450V45H470V49H474V61H470V65H450ZM454 61H466V49H454V61ZM478 65V45H502V49H506V65H498V49H486V65H478ZM518 65V57H526V65H518ZM550 65V57H558V65H550ZM582 65V57H590V65H582Z" fill="black"/>
<rect x="131" y="3" width="502" height="100" rx="22" stroke="black" stroke-width="6" stroke-linecap="round" stroke-dasharray="12 12"/>
<circle cx="129" cy="109" r="6" fill="#C4C4C4" stroke="black" stroke-width="2" stroke-linecap="round" stroke-dasharray="2 2"/>
</svg>
